<svg viewBox="0 0 200 150" xmlns="http://www.w3.org/2000/svg" fill="#f5b301">
  <path d="M92 100 C 60 108 34 86 20 52 C 34 60 48 62 62 58 C 46 52 38 40 32 24 C 46 34 60 38 72 38 C 62 30 60 18 60 6 C 74 20 86 30 92 44 Z"/>
  <path d="M108 100 C 140 108 166 86 180 52 C 166 60 152 62 138 58 C 154 52 162 40 168 24 C 154 34 140 38 128 38 C 138 30 140 18 140 6 C 126 20 114 30 108 44 Z"/>
  <path d="M100 34 C 92 58 88 78 100 108 C 112 78 108 58 100 34 Z"/>
  <g stroke="#f5b301" stroke-width="7" stroke-linecap="round" fill="none">
    <path d="M93 114 C 88 124 89 134 95 142"/>
    <path d="M107 114 C 112 124 111 134 105 142"/>
  </g>
</svg>
