<svg viewBox="0 0 220 165" xmlns="http://www.w3.org/2000/svg">
  <g transform="translate(112,62) scale(0.6) translate(-100,-100)" fill="#f5b301">
    <path d="M92 100 C 60 108 34 86 20 52 C 34 60 48 62 62 58 C 46 52 38 40 32 24 C 46 34 60 38 72 38 C 62 30 60 18 60 6 C 74 20 86 30 92 44 Z"/>
    <path d="M108 100 C 140 108 166 86 180 52 C 166 60 152 62 138 58 C 154 52 162 40 168 24 C 154 34 140 38 128 38 C 138 30 140 18 140 6 C 126 20 114 30 108 44 Z"/>
  </g>
  <path d="M35 122 L35 106 C 35 99 42 96 55 94 L75 74 C 80 68 88 66 105 66 L135 66 C 148 66 158 74 165 88 L185 94 C 195 97 198 104 196 116 L196 122 Z" fill="#f5b301"/>
  <path d="M82 78 C 86 72 92 70 105 70 L112 70 L112 92 L70 92 Z" fill="#111214"/>
  <path d="M120 70 L133 70 C 144 70 152 76 158 88 L158 92 L120 92 Z" fill="#111214"/>
  <circle cx="70" cy="122" r="14" fill="#111214" stroke="#f5b301" stroke-width="7"/>
  <circle cx="162" cy="122" r="14" fill="#111214" stroke="#f5b301" stroke-width="7"/>
</svg>
